<?xml version="1.0" encoding="UTF-8"?>
<svg width="215px"  height="32px" viewBox="0 0 195 32" version="1.1" xmlns="http://www.w3.org/2000/svg" xmlns:xlink="http://www.w3.org/1999/xlink">
    <!-- Generator: Sketch 62 (91390) - https://sketch.com -->
    <title>Xome Valuations - Logo</title>
    <desc>Created with Sketch.</desc>
    <g id="Symbols" stroke="none" stroke-width="1" fill="none" fill-rule="evenodd">
        <g id="Navigation/Shell/Header/Desktop" transform="translate(-20.000000, -14.000000)" fill="#FFFFFF">
            <g id="Xome-Valuations---Logo" transform="translate(20.000000, 14.000000)">
                <g id="Logo">
                    <path d="M27.9535959,13.2048397 L15.2887602,0.450324611 L15.2818194,0.443053315 C14.695158,-0.147684438 13.7441605,-0.147684438 13.1574991,0.443053315 L13.1505583,0.450104269 L6.26728467,7.38207358 L6.26728467,6.69548692 C6.26728467,5.85741491 5.59248633,5.17787921 4.76003305,5.17787921 C3.92791029,5.17787921 3.25311194,5.85741491 3.25311194,6.69548692 L3.25311194,10.4177297 L0.485392091,13.2048397 C-0.101269329,13.7955774 -0.101269329,14.753736 0.485392091,15.3441432 L0.492663388,15.3514145 C1.07899429,15.9422624 2.02999174,15.9422624 2.61665316,15.3514145 L14.2194389,3.66611056 L25.8223348,15.3514145 C26.4088861,15.9422624 27.3599937,15.9422624 27.9466551,15.3514145 L27.9535959,15.3444737 C28.5402573,14.753736 28.5402573,13.7955774 27.9535959,13.2048397" id="Fill-1"></path>
                    <path d="M9.18861617,24.4505827 L13.6631076,19.9444722 C14.2528538,19.3504293 14.2528538,18.3874232 13.6631076,17.7931599 C13.0732512,17.1992272 12.1168554,17.1992272 11.526999,17.7931599 L7.05261775,22.2997112 L2.5781263,17.7931599 C1.98826992,17.1992272 1.0322046,17.1992272 0.44234822,17.7931599 C-0.147508164,18.3874232 -0.147508164,19.3504293 0.44234822,19.9444722 L4.91683966,24.4505827 L0.44234822,28.9566933 C-0.147508164,29.5507362 -0.147508164,30.5137423 0.44234822,31.1080055 C1.0322046,31.7019382 1.98826992,31.7019382 2.5781263,31.1080055 L7.05261775,26.6014543 L11.526999,31.1080055 C12.1168554,31.7019382 13.0732512,31.7019382 13.6631076,31.1080055 C14.2528538,30.5137423 14.2528538,29.5507362 13.6631076,28.9566933 L9.18861617,24.4505827 Z" id="Fill-3"></path>
                    <path d="M49.2831729,19.0840464 C48.1352996,17.9183254 46.6952524,17.33552 44.9638025,17.33552 C43.232022,17.33552 41.8110344,17.9892756 40.7008397,19.297448 C39.5906449,17.9892756 38.1696573,17.33552 36.4378768,17.33552 C34.7065371,17.33552 33.2668204,17.9183254 32.1185064,19.0840464 C30.9706331,20.2496573 30.3963108,21.6573142 30.3963108,23.3063561 L30.3963108,30.0446445 C30.3963108,30.4616423 30.5421775,30.8171647 30.8340209,31.1107708 C31.1259744,31.4047075 31.4789628,31.5515656 31.8927657,31.5515656 C32.3068991,31.5515656 32.6646248,31.4047075 32.9656124,31.1107708 C33.2668204,30.8171647 33.4170938,30.4616423 33.4170938,30.0446445 L33.4170938,23.3063561 C33.4170938,22.49142 33.6993524,21.799435 34.2640897,21.2305111 C34.8286067,20.6619178 35.5018627,20.3777863 36.2825355,20.3777863 C37.0638694,20.3777863 37.7364643,20.6527736 38.3013118,21.2023073 C38.8657187,21.7521716 39.1670368,22.4247665 39.2047153,23.2210836 L39.2047153,30.0446445 C39.2047153,30.4616423 39.3505819,30.8171647 39.6423152,31.1107708 C39.9341586,31.4047075 40.2822994,31.5515656 40.6866276,31.5515656 C40.6916955,31.5515656 40.6961023,31.5502436 40.7008397,31.549913 C40.7056872,31.5502436 40.710094,31.5515656 40.7151619,31.5515656 C41.1193799,31.5515656 41.4676309,31.4047075 41.7593642,31.1107708 C42.0510974,30.8171647 42.196964,30.4616423 42.196964,30.0446445 L42.196964,23.2210836 C42.2346425,22.4247665 42.5359607,21.7521716 43.1004777,21.2023073 C43.665215,20.6527736 44.33781,20.3777863 45.1191438,20.3777863 C45.8999268,20.3777863 46.5731828,20.6619178 47.1375896,21.2305111 C47.702327,21.799435 47.9845855,22.49142 47.9845855,23.3063561 L47.9845855,30.0446445 C47.9845855,30.4616423 48.1352996,30.8171647 48.4361771,31.1107708 C48.7370545,31.4047075 49.0948904,31.5515656 49.5089136,31.5515656 C49.9228267,31.5515656 50.2757049,31.4047075 50.5677686,31.1107708 C50.8595019,30.8171647 51.0053685,30.4616423 51.0053685,30.0446445 L51.0053685,23.3063561 C51.0053685,21.6573142 50.4311564,20.2496573 49.2831729,19.0840464" id="Fill-6"></path>
                    <path d="M21.6579642,17.3476608 C17.9316451,17.3476608 14.9107519,20.5463703 14.9107519,24.4922605 C14.9107519,28.4380405 17.9316451,31.63675 21.6579642,31.63675 C25.3843935,31.63675 28.4051765,28.4380405 28.4051765,24.4922605 C28.4051765,20.5463703 25.3843935,17.3476608 21.6579642,17.3476608 M21.6579642,28.5404997 C19.5466441,28.5404997 17.8349148,26.7281841 17.8349148,24.4922605 C17.8349148,22.2563368 19.5466441,20.4439111 21.6579642,20.4439111 C23.7692843,20.4439111 25.4811237,22.2563368 25.4811237,24.4922605 C25.4811237,26.7281841 23.7692843,28.5404997 21.6579642,28.5404997" id="Fill-8"></path>
                    <path d="M64.4717765,19.1978753 C63.1823333,17.956687 61.5965296,17.335542 59.7148062,17.335542 C57.8324218,17.335542 56.2277789,18.0322644 54.9009876,19.4252685 C53.5741963,20.8183828 52.9013811,22.4914421 52.882652,24.4435648 C52.9013811,26.3960181 53.5741963,28.0641196 54.9009876,29.4475389 C56.2277789,30.831509 57.8749479,31.5370451 59.8416132,31.5370451 C61.8736101,31.5370451 63.74024,30.7474484 64.6506945,29.8307141 C65.9038914,28.5682628 64.9137832,27.3404053 64.017651,27.3404053 C63.0041865,27.3404053 62.4045249,28.6088058 60.21928,28.6088058 C57.8428881,28.6088058 56.3349754,26.982349 55.9093842,25.4612158 L63.9941845,25.4612158 C63.9936337,25.4630887 63.9929727,25.4650718 63.9923116,25.4668345 L65.0787094,25.4668345 C65.530301,25.4668345 65.8924336,25.3393665 66.1654377,25.0832186 C66.4382215,24.827291 66.5748338,24.4911588 66.5748338,24.0738304 L66.5748338,23.9318198 C66.4619083,22.0173756 65.7607791,20.4395042 64.4717765,19.1978753 L64.4717765,19.1978753 Z M55.9358253,23.0470352 C56.4701554,21.3275939 58.0638914,20.0797954 59.9472674,20.0797954 C61.8308637,20.0797954 63.4243793,21.3275939 63.9590399,23.0470352 L55.9358253,23.0470352 Z" id="Fill-10"></path>
                    <path d="M67.4109872,16.7873846 C67.613449,16.7873846 67.7455774,16.6552562 67.7455774,16.4396251 C67.7455774,16.2283355 67.613449,16.1050349 67.4109872,16.1050349 L67.0412304,16.1050349 L67.0412304,16.7873846 L67.4109872,16.7873846 Z M66.8474518,16.0038764 C66.8474518,15.9553956 66.8739354,15.928912 66.9224162,15.928912 L67.4329845,15.928912 C67.7322632,15.928912 67.9435528,16.1315185 67.9435528,16.4396251 C67.9435528,16.6992508 67.7850856,16.8665459 67.6046211,16.9106851 L67.6046211,16.9193683 C67.6046211,16.9193683 67.6221321,16.9413655 67.6617851,17.0161852 L67.9656948,17.6017179 C67.9920337,17.6543956 67.9698917,17.6895623 67.9083861,17.6895623 L67.8555637,17.6895623 C67.8115692,17.6895623 67.7850856,17.6720513 67.7675746,17.6368846 L67.4198151,16.954535 L67.0412304,16.954535 L67.0412304,17.6148873 C67.0412304,17.6633682 67.0148916,17.6895623 66.966266,17.6895623 L66.9224162,17.6895623 C66.8739354,17.6895623 66.8474518,17.6633682 66.8474518,17.6148873 L66.8474518,16.0038764 Z M67.3581648,18.217931 C68.1328452,18.217931 68.727061,17.6060595 68.727061,16.8092372 C68.727061,16.0170458 68.1328452,15.400688 67.3581648,15.400688 C66.5966539,15.400688 66.0067796,16.0170458 66.0067796,16.8092372 C66.0067796,17.6060595 66.5966539,18.217931 67.3581648,18.217931 L67.3581648,18.217931 Z M67.3581648,15.215882 C68.2296621,15.215882 68.9251812,15.9202289 68.9251812,16.8092372 C68.9251812,17.7028764 68.2296621,18.4027371 67.3581648,18.4027371 C66.499837,18.4027371 65.8086595,17.7028764 65.8086595,16.8092372 C65.8086595,15.9202289 66.499837,15.215882 67.3581648,15.215882 L67.3581648,15.215882 Z" id="Fill-12"></path>
                </g>
                <g id="Valuations" transform="translate(75.826087, 12.521739)">
                    <path d="M0.216834153,0.850505607 C0.0595097383,0.378532363 0.243054889,0.0901042691 0.741248869,0.0901042691 L1.34432579,0.0901042691 C1.71141609,0.0901042691 1.97362345,0.247318513 2.07850639,0.614408814 L6.98200433,14.0923077 C7.32287389,15.0362542 7.68996419,16.4785048 7.68996419,16.4785048 L7.74240567,16.4785048 C7.74240567,16.4785048 8.1357167,15.0362542 8.45036553,14.0923077 L13.4061948,0.614408814 C13.5110777,0.247318513 13.7732851,0.0901042691 14.1142648,0.0901042691 L14.7434523,0.0901042691 C15.2155357,0.0901042691 15.3990809,0.378532363 15.2679772,0.850505607 L8.89611804,17.9993075 C8.76501436,18.3663978 8.52902774,18.5237222 8.16193744,18.5237222 L7.29665316,18.5237222 C6.95567342,18.5237222 6.69357623,18.3663978 6.58858312,17.9993075 L0.216834153,0.850505607 Z" id="Fill-14"></path>
                    <path d="M20.5379815,17.3438001 C23.0813929,17.3438001 24.576085,14.7216164 24.576085,12.4141916 L24.576085,11.7847838 L23.8419044,11.7847838 C21.7703561,11.7847838 17.6011489,11.863446 17.6011489,14.8264993 C17.6011489,16.0588739 18.5713162,17.3438001 20.5379815,17.3438001 M23.8155735,10.4475263 L24.576085,10.4475263 L24.576085,10.0279945 C24.576085,7.48447295 23.186386,6.61918867 21.3246036,6.61918867 C19.8562424,6.61918867 18.7286406,7.16982412 18.1255636,7.53691442 C17.7584733,7.72045957 17.4700452,7.6680181 17.2340586,7.32714853 L17.0767342,7.06494118 C16.8669683,6.72407161 16.9194098,6.38320205 17.2602794,6.17332599 C17.9420185,5.75390439 19.4104899,5.01972379 21.4557073,5.01972379 C24.6023057,5.01972379 26.359095,6.77651308 26.359095,10.080436 L26.359095,17.8682148 C26.359095,18.2877466 26.1493291,18.5237332 25.7297974,18.5237332 L25.3102656,18.5237332 C24.8907338,18.5237332 24.6547472,18.3139673 24.6547472,17.8682148 L24.6547472,16.8192752 C24.6547472,16.2163085 24.7334094,15.8228873 24.7334094,15.8228873 L24.6809679,15.8228873 C24.7071887,15.8228873 23.5010348,18.8383821 20.2233327,18.8383821 C17.99446,18.8383821 15.7656974,17.5273453 15.7656974,14.9838237 C15.7656974,10.6835129 21.2721621,10.4475263 23.8155735,10.4475263" id="Fill-16"></path>
                    <path d="M30.2393893,0.745611647 C30.2393893,0.325969703 30.4491552,0.090093252 30.868687,0.090093252 L31.366881,0.090093252 C31.7864127,0.090093252 32.0225095,0.325969703 32.0225095,0.745611647 L32.0225095,15.0886846 C32.0225095,16.7407012 32.8091316,16.9242463 33.3859878,17.0027983 C33.7006366,17.0291293 33.9366233,17.1863435 33.9366233,17.5797647 L33.9366233,17.9730757 C33.9366233,18.3663868 33.7530781,18.6285941 33.2548841,18.6285941 C32.1797238,18.6285941 30.2393893,18.2878347 30.2393893,15.4033335 L30.2393893,0.745611647 Z" id="Fill-18"></path>
                    <path d="M36.4534173,5.98982491 C36.4534173,5.57029313 36.6631832,5.33430651 37.0827149,5.33430651 L37.5809089,5.33430651 C38.0004407,5.33430651 38.2365375,5.57029313 38.2365375,5.98982491 L38.2365375,13.2532992 C38.2365375,15.3246272 38.5511863,17.160299 41.0945977,17.160299 C44.1100925,17.160299 45.9717647,14.5118946 45.9717647,11.6537242 L45.9717647,5.98982491 C45.9717647,5.57029313 46.2078615,5.33430651 46.6273933,5.33430651 L47.1255873,5.33430651 C47.545119,5.33430651 47.7548849,5.57029313 47.7548849,5.98982491 L47.7548849,17.8681487 C47.7548849,18.2877907 47.545119,18.5237773 47.1255873,18.5237773 L46.6535038,18.5237773 C46.2339721,18.5237773 46.0243163,18.2877907 46.0243163,17.8681487 L46.0243163,16.3473461 C46.0243163,15.8229313 46.1028684,15.4032894 46.1028684,15.4032894 L46.0504269,15.4032894 C45.5522329,16.6882156 43.7692229,18.8384261 40.8586111,18.8384261 C37.7382333,18.8384261 36.4534173,17.160299 36.4534173,13.7251623 L36.4534173,5.98982491 Z" id="Fill-20"></path>
                    <path d="M55.4632083,17.3438001 C58.0067299,17.3438001 59.5013118,14.7216164 59.5013118,12.4141916 L59.5013118,11.7847838 L58.7671312,11.7847838 C56.6956931,11.7847838 52.5263758,11.863446 52.5263758,14.8264993 C52.5263758,16.0588739 53.496543,17.3438001 55.4632083,17.3438001 M58.7409105,10.4475263 L59.5013118,10.4475263 L59.5013118,10.0279945 C59.5013118,7.48447295 58.1116128,6.61918867 56.2499406,6.61918867 C54.7814692,6.61918867 53.6538674,7.16982412 53.0507905,7.53691442 C52.6837002,7.72045957 52.3952721,7.6680181 52.1592855,7.32714853 L52.001961,7.06494118 C51.7921952,6.72407161 51.8446366,6.38320205 52.1855062,6.17332599 C52.8672453,5.75390439 54.3357167,5.01972379 56.3809341,5.01972379 C59.5275326,5.01972379 61.284432,6.77651308 61.284432,10.080436 L61.284432,17.8682148 C61.284432,18.2877466 61.0746661,18.5237332 60.6550242,18.5237332 L60.2354924,18.5237332 C59.8159607,18.5237332 59.579974,18.3139673 59.579974,17.8682148 L59.579974,16.8192752 C59.579974,16.2163085 59.6586362,15.8228873 59.6586362,15.8228873 L59.6061948,15.8228873 C59.6324155,15.8228873 58.4262617,18.8383821 55.1485595,18.8383821 C52.9196868,18.8383821 50.6909243,17.5273453 50.6909243,14.9838237 C50.6909243,10.6835129 56.1973889,10.4475263 58.7409105,10.4475263" id="Fill-22"></path>
                    <path d="M65.5055739,6.93380445 L64.404303,6.93380445 C63.9847712,6.93380445 63.7750053,6.72414873 63.7750053,6.30450679 L63.7750053,6.0947409 C63.7750053,5.67520913 63.9847712,5.43922251 64.404303,5.43922251 L65.5317946,5.43922251 L65.5317946,2.34517568 C65.5317946,1.92553374 65.7678914,1.68954712 66.187313,1.68954712 L66.6593964,1.68954712 C67.0789282,1.68954712 67.2886941,1.92553374 67.2886941,2.34517568 L67.2886941,5.43922251 L69.9633193,5.43922251 C70.3828511,5.43922251 70.6188377,5.67520913 70.6188377,6.0947409 L70.6188377,6.30450679 C70.6188377,6.72414873 70.3828511,6.93380445 69.9633193,6.93380445 L67.2886941,6.93380445 L67.2886941,13.5416502 C67.2886941,16.5833657 69.1503663,16.950456 70.172975,17.0028975 C70.6974999,17.055339 70.8810451,17.2126634 70.8810451,17.6584159 L70.8810451,17.9992855 C70.8810451,18.4188172 70.6712792,18.6285831 70.1468645,18.6285831 C67.2624733,18.6285831 65.5055739,16.8717938 65.5055739,13.7776368 L65.5055739,6.93380445 Z" id="Fill-24"></path>
                    <path d="M73.3716183,5.98982491 C73.3716183,5.57029313 73.6077151,5.33430651 74.0271367,5.33430651 L74.5254409,5.33430651 C74.9448625,5.33430651 75.1547385,5.57029313 75.1547385,5.98982491 L75.1547385,17.8681487 C75.1547385,18.2877907 74.9448625,18.5237773 74.5254409,18.5237773 L74.0271367,18.5237773 C73.6077151,18.5237773 73.3716183,18.2877907 73.3716183,17.8681487 L73.3716183,5.98982491 Z M73.3191769,1.68962424 L73.3191769,0.745567578 C73.3191769,0.326035806 73.5289428,0.0900491836 73.9484745,0.0900491836 L74.6041031,0.0900491836 C75.0235247,0.0900491836 75.2332906,0.326035806 75.2332906,0.745567578 L75.2332906,1.68962424 C75.2332906,2.10904584 75.0235247,2.3189219 74.6041031,2.3189219 L73.9484745,2.3189219 C73.5289428,2.3189219 73.3191769,2.10904584 73.3191769,1.68962424 L73.3191769,1.68962424 Z" id="Fill-26"></path>
                    <path d="M85.2758103,17.2388951 C88.0815392,17.2388951 90.388964,14.9314704 90.388964,11.863424 C90.388964,8.87426008 88.0815392,6.61916663 85.2758103,6.61916663 C82.4438607,6.61916663 80.136436,8.87426008 80.136436,11.863424 C80.136436,14.9314704 82.4438607,17.2388951 85.2758103,17.2388951 M85.2495896,5.01970175 C89.1041479,5.01970175 92.2244155,7.95642416 92.2244155,11.863424 C92.2244155,15.8491961 89.1041479,18.8384702 85.2758103,18.8384702 C81.421252,18.8384702 78.3007641,15.8491961 78.3007641,11.863424 C78.3007641,7.95642416 81.421252,5.01970175 85.2495896,5.01970175" id="Fill-28"></path>
                    <path d="M95.3441983,5.98982491 C95.3441983,5.57029313 95.5801849,5.33430651 95.9997167,5.33430651 L96.4715798,5.33430651 C96.865001,5.33430651 97.1009876,5.57029313 97.1009876,5.98982491 L97.1009876,7.51073775 C97.1009876,8.0350423 96.9961047,8.45468424 96.9961047,8.45468424 L97.0485461,8.45468424 C97.5467401,7.2485304 99.2773087,5.01965768 102.371466,5.01965768 C105.649168,5.01965768 106.80299,6.88144009 106.80299,10.1328113 L106.80299,17.8681487 C106.80299,18.2877907 106.566894,18.5237773 106.147472,18.5237773 L105.649168,18.5237773 C105.229746,18.5237773 105.01987,18.2877907 105.01987,17.8681487 L105.01987,10.6048947 C105.01987,8.53334645 104.67889,6.69789494 102.135589,6.69789494 C99.3298603,6.69789494 97.1272083,9.00531969 97.1272083,12.073256 L97.1272083,17.8681487 C97.1272083,18.2877907 96.9174425,18.5237773 96.4979107,18.5237773 L95.9997167,18.5237773 C95.5801849,18.5237773 95.3441983,18.2877907 95.3441983,17.8681487 L95.3441983,5.98982491 Z" id="Fill-30"></path>
                    <path d="M109.844188,16.4259532 L110.053954,16.1637458 C110.289941,15.8492072 110.578369,15.8228763 110.945459,16.0588629 C111.522315,16.5047256 112.728579,17.2651269 114.432817,17.2651269 C115.901288,17.2651269 117.107552,16.5308361 117.107552,15.1411371 C117.107552,12.1780838 110.053954,13.0695888 110.053954,8.71683651 C110.053954,6.27830809 112.125392,5.01971277 114.53781,5.01971277 C116.425703,5.01971277 117.605636,5.7014519 118.156271,6.09476294 C118.497251,6.30452882 118.549693,6.61917765 118.339817,6.96004722 L118.156271,7.24847531 C117.946616,7.61556561 117.631967,7.64189652 117.264766,7.43202046 C116.766572,7.09126107 115.822626,6.59295692 114.432817,6.59295692 C113.043118,6.59295692 111.836964,7.19614401 111.836964,8.63817431 C111.836964,11.6798898 118.864342,10.7097226 118.864342,15.1150266 C118.864342,17.2912375 117.02878,18.838371 114.406706,18.838371 C112.099282,18.838371 110.604589,17.8682038 109.949071,17.3175684 C109.634422,17.0814716 109.608091,16.7669329 109.844188,16.4259532" id="Fill-32"></path>
                </g>
            </g>
        </g>
    </g>
</svg>